<svg xmlns="http://www.w3.org/2000/svg" xmlns:xlink="http://www.w3.org/1999/xlink" width="300" zoomAndPan="magnify" viewBox="0 0 224.87999 74.999997" height="100" preserveAspectRatio="xMidYMid meet" version="1.0"><defs><g/><clipPath id="736d43c96a"><path d="M 53 19.46875 L 120 19.46875 L 120 36 L 53 36 Z M 53 19.46875 " clip-rule="nonzero"/></clipPath><clipPath id="a4562f3d52"><path d="M 46.148438 32 L 130 32 L 130 55.449219 L 46.148438 55.449219 Z M 46.148438 32 " clip-rule="nonzero"/></clipPath><clipPath id="c81de3f5d1"><path d="M 3 38 L 40 38 L 40 56.136719 L 3 56.136719 Z M 3 38 " clip-rule="nonzero"/></clipPath><clipPath id="5f15bae995"><path d="M 16.210938 32.601562 L 27.453125 32.601562 L 27.453125 46.09375 L 16.210938 46.09375 Z M 16.210938 32.601562 " clip-rule="nonzero"/></clipPath></defs><g clip-path="url(#736d43c96a)"><path fill="#ffbd59" d="M 87.109375 35.8125 C 84.839844 35.742188 82.566406 35.4375 80.3125 34.914062 C 79.496094 29.972656 75.1875 26.1875 70.023438 26.1875 C 66.371094 26.1875 63.148438 28.097656 61.296875 30.972656 C 60.566406 31.007812 59.84375 31.070312 59.125 31.148438 C 58.886719 31.179688 58.644531 31.214844 58.40625 31.25 C 58.167969 31.285156 57.929688 31.3125 57.6875 31.359375 C 57.214844 31.449219 56.738281 31.527344 56.269531 31.640625 C 55.335938 31.851562 54.414062 32.109375 53.511719 32.410156 C 55.402344 25.019531 62.113281 19.527344 70.042969 19.527344 C 79.152344 19.527344 86.671875 26.773438 87.109375 35.8125 Z M 107.027344 19.527344 C 97.933594 19.527344 90.460938 26.789062 90.003906 35.777344 L 90.355469 35.757812 C 91.144531 35.699219 91.933594 35.625 92.714844 35.503906 C 93.109375 35.453125 93.496094 35.378906 93.886719 35.316406 C 94.273438 35.238281 94.660156 35.164062 95.042969 35.074219 C 95.671875 34.9375 96.292969 34.769531 96.902344 34.589844 C 97.902344 29.578125 102.449219 26.207031 106.945312 26.207031 C 109.878906 26.207031 112.8125 27.632812 115.378906 30.140625 L 119.042969 24.660156 C 115.828125 21.523438 111.285156 19.566406 107.027344 19.527344 Z M 107.027344 19.527344 " fill-opacity="1" fill-rule="nonzero"/></g><g clip-path="url(#a4562f3d52)"><path fill="#ff914d" d="M 129.761719 38.308594 C 128.304688 37.171875 126.691406 36.214844 124.988281 35.414062 C 123.28125 34.617188 121.476562 33.988281 119.613281 33.539062 C 115.878906 32.636719 111.921875 32.457031 108.035156 32.988281 C 107.550781 33.054688 107.0625 33.132812 106.578125 33.21875 C 106.09375 33.3125 105.609375 33.40625 105.128906 33.515625 C 104.164062 33.742188 103.203125 34.003906 102.242188 34.324219 C 101.765625 34.492188 101.285156 34.660156 100.792969 34.863281 L 100.417969 35.019531 L 100.222656 35.105469 L 100.113281 35.15625 L 99.996094 35.214844 L 99.921875 35.257812 L 99.847656 35.296875 C 99.835938 35.300781 99.835938 35.300781 99.828125 35.304688 L 99.789062 35.324219 L 99.6875 35.371094 L 99.453125 35.472656 C 99.128906 35.613281 98.777344 35.75 98.417969 35.878906 C 98.0625 36.015625 97.691406 36.136719 97.320312 36.253906 C 97.183594 36.300781 97.046875 36.339844 96.90625 36.378906 C 96.296875 36.558594 95.675781 36.726562 95.046875 36.863281 C 94.664062 36.953125 94.277344 37.027344 93.890625 37.105469 C 93.5 37.167969 93.113281 37.246094 92.71875 37.292969 C 91.9375 37.414062 91.148438 37.488281 90.359375 37.542969 L 90.007812 37.566406 L 89.765625 37.578125 L 89.46875 37.597656 L 89.171875 37.605469 L 88.578125 37.617188 C 88.378906 37.625 88.179688 37.613281 87.980469 37.617188 C 87.691406 37.617188 87.402344 37.609375 87.113281 37.601562 C 84.839844 37.53125 82.566406 37.222656 80.316406 36.699219 C 79.699219 36.558594 79.089844 36.398438 78.484375 36.226562 L 77.894531 36.0625 L 77.3125 35.871094 C 76.921875 35.75 76.527344 35.632812 76.140625 35.488281 L 73.566406 34.566406 C 71.710938 33.949219 69.804688 33.464844 67.875 33.152344 C 65.9375 32.839844 63.980469 32.695312 62.03125 32.738281 C 61.789062 32.742188 61.542969 32.75 61.296875 32.761719 C 60.570312 32.792969 59.84375 32.859375 59.125 32.9375 C 58.886719 32.964844 58.648438 33.003906 58.40625 33.035156 C 58.167969 33.070312 57.929688 33.101562 57.691406 33.148438 C 57.214844 33.238281 56.742188 33.316406 56.273438 33.429688 C 55.335938 33.636719 54.417969 33.894531 53.515625 34.199219 C 52.605469 34.503906 51.71875 34.859375 50.859375 35.261719 C 50 35.664062 49.171875 36.109375 48.378906 36.613281 C 47.589844 37.125 46.820312 37.664062 46.148438 38.308594 C 47.035156 38.042969 47.917969 37.847656 48.800781 37.6875 C 49.683594 37.527344 50.5625 37.402344 51.4375 37.316406 C 51.96875 37.261719 52.496094 37.21875 53.023438 37.191406 C 52.996094 37.605469 52.980469 38.023438 52.980469 38.445312 C 52.980469 47.796875 60.65625 55.453125 70.023438 55.453125 C 77.019531 55.453125 83.070312 51.21875 85.714844 45.203125 C 85.953125 45.222656 86.191406 45.238281 86.429688 45.246094 L 87.183594 45.277344 C 87.4375 45.285156 87.6875 45.285156 87.9375 45.289062 C 88.191406 45.289062 88.441406 45.292969 88.695312 45.285156 L 89.449219 45.261719 L 89.828125 45.25 L 90.207031 45.226562 L 90.960938 45.171875 C 91.09375 45.160156 91.226562 45.148438 91.359375 45.132812 C 93.972656 51.199219 100.050781 55.472656 107.277344 55.472656 C 115.832031 55.472656 122.9375 49.464844 122.9375 39.160156 C 122.9375 38.570312 122.910156 37.96875 122.863281 37.355469 C 123.378906 37.386719 123.894531 37.429688 124.410156 37.480469 C 126.167969 37.652344 127.945312 37.949219 129.761719 38.308594 Z M 70.023438 48.769531 C 64.300781 48.769531 59.636719 44.109375 59.636719 38.40625 C 59.636719 38.082031 59.652344 37.757812 59.679688 37.4375 L 59.792969 37.453125 C 60 37.476562 60.207031 37.503906 60.414062 37.539062 L 61.039062 37.644531 C 61.242188 37.671875 61.449219 37.714844 61.65625 37.753906 C 63.300781 38.066406 64.90625 38.488281 66.476562 39.011719 C 68.046875 39.535156 69.578125 40.148438 71.074219 40.851562 L 72.1875 41.394531 L 72.488281 41.539062 L 72.816406 41.695312 L 73.484375 42.007812 C 73.925781 42.222656 74.378906 42.40625 74.832031 42.597656 L 75.515625 42.875 L 76.210938 43.132812 C 77.0625 43.449219 77.925781 43.726562 78.804688 43.976562 C 76.953125 46.855469 73.707031 48.769531 70.023438 48.769531 Z M 107.558594 48.832031 C 103.300781 48.832031 99.914062 46.769531 98.113281 43.714844 C 98.679688 43.527344 99.242188 43.328125 99.796875 43.101562 C 100.269531 42.910156 100.742188 42.714844 101.214844 42.492188 C 101.6875 42.273438 102.152344 42.035156 102.632812 41.769531 C 102.75 41.707031 102.875 41.632812 102.996094 41.5625 L 103.191406 41.449219 L 103.300781 41.382812 L 103.351562 41.351562 L 103.359375 41.347656 C 103.359375 41.347656 103.355469 41.347656 103.355469 41.347656 L 103.316406 41.371094 C 103.3125 41.371094 103.304688 41.375 103.296875 41.378906 L 103.3125 41.371094 L 103.355469 41.34375 L 103.460938 41.28125 L 103.695312 41.148438 C 104.019531 40.972656 104.375 40.796875 104.730469 40.628906 C 105.445312 40.292969 106.195312 39.976562 106.957031 39.691406 C 107.082031 39.640625 107.210938 39.597656 107.335938 39.546875 L 107.335938 42.476562 L 115.832031 42.476562 C 115.605469 46.429688 112.242188 48.832031 107.558594 48.832031 Z M 107.558594 48.832031 " fill-opacity="1" fill-rule="nonzero"/></g><path fill="#ffffff" d="M 6.734375 36.25 C 6.734375 36.25 6.640625 22.457031 14.738281 20.558594 C 22.835938 18.660156 22.476562 18.996094 23.574219 19.332031 C 24.675781 19.667969 28.082031 20.226562 28.863281 20.335938 C 29.644531 20.449219 30.707031 22.792969 26.910156 23.074219 C 26.910156 23.074219 34.621094 24.136719 38.46875 28.328125 C 40.980469 31.0625 38.496094 31.136719 37.378906 30.789062 C 37.378906 30.789062 40.8125 32.566406 38.542969 34.082031 C 37.578125 34.726562 35.601562 33.457031 35.601562 33.457031 C 35.601562 33.457031 38.449219 35.050781 35.882812 35.859375 C 35.292969 36.042969 34.207031 35.636719 34.207031 35.636719 C 34.207031 35.636719 34.152344 37.089844 31.695312 37.09375 C 29.960938 37.101562 26.140625 35.300781 23.476562 35.578125 C 20.8125 35.859375 17.054688 35.894531 13.175781 35.050781 C 9.15625 34.175781 7.835938 35.414062 6.734375 36.25 " fill-opacity="1" fill-rule="nonzero"/><path fill="#ffffff" d="M 20.011719 32.753906 C 20.535156 33.296875 20.707031 33.851562 20.867188 34.570312 C 20.824219 34.367188 21.023438 34.066406 21.089844 33.871094 C 21.597656 32.367188 21.578125 30.628906 21.789062 29.0625 C 21.972656 27.714844 22.410156 26.0625 23.515625 25.1875 C 24.550781 24.367188 25.882812 23.929688 27.191406 23.863281 C 27.757812 23.835938 28.328125 23.800781 28.898438 23.792969 C 29.199219 23.789062 29.5 23.8125 29.800781 23.816406 C 30.007812 23.816406 30.214844 23.90625 30.417969 23.890625 C 29.980469 23.679688 29.464844 23.628906 28.992188 23.511719 C 28.425781 23.367188 27.855469 23.230469 27.277344 23.144531 C 26.539062 23.035156 25.792969 23.144531 25.050781 23.21875 C 24.292969 23.296875 23.519531 23.390625 22.769531 23.453125 C 22.148438 23.503906 21.632812 23.53125 21.109375 23.917969 C 20.042969 24.703125 19.5625 26.066406 18.875 27.148438 C 18.25 28.136719 16.808594 29.492188 15.574219 29.550781 C 14.945312 29.578125 14 29.625 13.398438 29.449219 C 13.113281 29.367188 12.773438 29.109375 12.550781 28.914062 C 12.34375 28.734375 12.050781 28.179688 11.703125 28.292969 C 10.660156 28.625 11.972656 30.21875 12.394531 30.554688 C 13.035156 31.0625 13.929688 31.082031 14.699219 31.199219 C 15.6875 31.347656 16.691406 31.328125 17.679688 31.484375 C 18.480469 31.613281 19.378906 32.101562 20.011719 32.753906 " fill-opacity="1" fill-rule="nonzero"/><path fill="#737373" d="M 15.792969 29.628906 C 15.792969 29.628906 15.847656 29.613281 15.957031 29.582031 C 16.0625 29.546875 16.207031 29.488281 16.386719 29.382812 C 16.742188 29.179688 17.195312 28.785156 17.65625 28.246094 C 18.121094 27.710938 18.601562 27.03125 19.097656 26.289062 C 19.34375 25.914062 19.601562 25.527344 19.859375 25.136719 C 20.121094 24.742188 20.382812 24.339844 20.703125 23.953125 C 20.855469 23.761719 21.085938 23.550781 21.339844 23.445312 C 21.582031 23.332031 21.828125 23.265625 22.066406 23.207031 C 22.550781 23.101562 23.019531 23.042969 23.472656 22.992188 C 23.921875 22.949219 24.355469 22.917969 24.765625 22.910156 C 25.175781 22.902344 25.5625 22.898438 25.917969 22.894531 C 26.628906 22.882812 27.21875 22.871094 27.632812 22.84375 C 28.046875 22.820312 28.289062 22.792969 28.289062 22.792969 L 28.308594 22.855469 C 28.308594 22.855469 28.089844 22.96875 27.683594 23.105469 C 27.277344 23.242188 26.679688 23.386719 25.960938 23.480469 C 25.601562 23.523438 25.210938 23.570312 24.800781 23.597656 C 24.390625 23.628906 23.957031 23.632812 23.515625 23.652344 C 23.070312 23.660156 22.617188 23.679688 22.171875 23.746094 C 21.953125 23.78125 21.734375 23.832031 21.539062 23.90625 C 21.347656 23.980469 21.203125 24.085938 21.050781 24.257812 C 20.746094 24.597656 20.46875 24.988281 20.191406 25.367188 C 19.914062 25.746094 19.640625 26.121094 19.378906 26.484375 C 18.84375 27.207031 18.3125 27.867188 17.808594 28.386719 C 17.304688 28.90625 16.820312 29.285156 16.4375 29.476562 C 16.25 29.574219 16.085938 29.628906 15.976562 29.65625 C 15.867188 29.679688 15.808594 29.691406 15.808594 29.691406 L 15.792969 29.628906 " fill-opacity="1" fill-rule="nonzero"/><path fill="#ffffff" d="M 27.429688 36.097656 C 27.300781 36.082031 27.167969 36.078125 27.054688 36.046875 C 26.835938 35.984375 26.621094 35.902344 26.398438 35.84375 C 25.171875 35.535156 23.800781 35.421875 22.546875 35.640625 C 22.363281 35.671875 21.945312 35.644531 21.796875 35.71875 C 22.761719 35.222656 23.546875 34.851562 24.070312 33.859375 C 24.464844 33.109375 24.832031 32.324219 25.023438 31.566406 C 25.300781 30.464844 25.347656 29.191406 25.382812 28.054688 C 25.398438 27.601562 25.078125 24.949219 25.636719 24.757812 C 26.09375 24.605469 26.402344 26.660156 26.425781 26.933594 C 26.554688 28.519531 26.152344 30.699219 25.472656 32.128906 C 25.1875 32.726562 24.679688 33.3125 24.679688 34.003906 C 24.675781 34.453125 24.925781 34.796875 25.289062 35.039062 C 25.707031 35.316406 26.195312 35.546875 26.660156 35.734375 C 27.003906 35.875 27.34375 35.996094 27.671875 36.167969 C 27.601562 36.128906 27.515625 36.109375 27.429688 36.097656 " fill-opacity="1" fill-rule="nonzero"/><path fill="#737373" d="M 37.359375 30.816406 C 37.359375 30.816406 36.679688 30.371094 35.621094 29.777344 C 34.554688 29.191406 33.121094 28.433594 31.632812 27.820312 C 31.261719 27.664062 30.882812 27.527344 30.511719 27.386719 C 30.140625 27.261719 29.769531 27.140625 29.414062 27.019531 C 29.058594 26.910156 28.71875 26.785156 28.394531 26.675781 C 28.066406 26.582031 27.757812 26.480469 27.46875 26.386719 C 27.179688 26.316406 26.914062 26.242188 26.679688 26.175781 C 26.441406 26.101562 26.234375 26.078125 26.0625 26.027344 C 25.714844 25.953125 25.511719 25.898438 25.511719 25.898438 L 25.515625 25.832031 C 25.515625 25.832031 25.71875 25.808594 26.082031 25.792969 C 26.261719 25.789062 26.484375 25.761719 26.734375 25.789062 C 26.988281 25.808594 27.269531 25.832031 27.582031 25.863281 C 27.886719 25.914062 28.21875 25.980469 28.566406 26.050781 C 28.914062 26.128906 29.269531 26.246094 29.640625 26.359375 C 30.003906 26.496094 30.375 26.644531 30.746094 26.804688 C 31.109375 26.980469 31.488281 27.144531 31.851562 27.332031 C 32.21875 27.519531 32.589844 27.691406 32.941406 27.890625 C 33.292969 28.082031 33.640625 28.273438 33.96875 28.46875 C 34.636719 28.847656 35.234375 29.238281 35.742188 29.578125 C 36.757812 30.261719 37.398438 30.761719 37.398438 30.761719 L 37.359375 30.816406 " fill-opacity="1" fill-rule="nonzero"/><path fill="#737373" d="M 36.019531 33.769531 C 36.019531 33.769531 35.851562 33.703125 35.554688 33.589844 C 35.265625 33.46875 34.835938 33.332031 34.34375 33.097656 C 34.097656 32.988281 33.828125 32.867188 33.546875 32.738281 C 33.257812 32.613281 32.972656 32.464844 32.664062 32.320312 C 32.058594 32.023438 31.414062 31.707031 30.765625 31.394531 C 30.441406 31.25 30.113281 31.105469 29.792969 30.960938 C 29.46875 30.816406 29.15625 30.679688 28.84375 30.5625 C 28.539062 30.433594 28.25 30.292969 27.972656 30.167969 C 27.691406 30.058594 27.425781 29.949219 27.183594 29.84375 C 26.9375 29.738281 26.714844 29.632812 26.507812 29.578125 C 26.304688 29.511719 26.125 29.449219 25.976562 29.390625 C 25.683594 29.285156 25.511719 29.210938 25.511719 29.210938 L 25.519531 29.144531 C 25.519531 29.144531 25.699219 29.140625 26.019531 29.160156 C 26.179688 29.164062 26.375 29.179688 26.601562 29.199219 C 26.828125 29.210938 27.074219 29.261719 27.34375 29.332031 C 27.609375 29.398438 27.898438 29.472656 28.203125 29.5625 C 28.503906 29.65625 28.808594 29.789062 29.125 29.921875 C 29.4375 30.0625 29.757812 30.210938 30.066406 30.394531 C 30.378906 30.566406 30.695312 30.742188 31.011719 30.917969 C 32.269531 31.636719 33.507812 32.363281 34.445312 32.886719 C 34.90625 33.160156 35.324219 33.335938 35.601562 33.484375 C 35.882812 33.625 36.042969 33.707031 36.042969 33.707031 L 36.019531 33.769531 " fill-opacity="1" fill-rule="nonzero"/><path fill="#737373" d="M 34.199219 35.667969 C 34.199219 35.667969 34.046875 35.640625 33.78125 35.589844 C 33.648438 35.5625 33.488281 35.53125 33.300781 35.496094 C 33.117188 35.464844 32.914062 35.390625 32.6875 35.332031 C 32.234375 35.210938 31.714844 35.042969 31.167969 34.847656 C 30.617188 34.65625 30.042969 34.433594 29.460938 34.226562 C 28.878906 34.019531 28.300781 33.816406 27.753906 33.628906 C 27.488281 33.527344 27.230469 33.414062 26.992188 33.3125 C 26.746094 33.21875 26.519531 33.121094 26.308594 33.027344 C 26.097656 32.9375 25.90625 32.84375 25.734375 32.785156 C 25.558594 32.714844 25.410156 32.652344 25.285156 32.59375 C 25.035156 32.488281 24.890625 32.414062 24.890625 32.414062 L 24.902344 32.347656 C 24.902344 32.347656 25.058594 32.34375 25.335938 32.367188 C 25.609375 32.382812 26.015625 32.402344 26.46875 32.519531 C 26.699219 32.570312 26.945312 32.628906 27.207031 32.703125 C 27.46875 32.769531 27.730469 32.875 28.003906 32.976562 C 28.273438 33.089844 28.554688 33.199219 28.828125 33.335938 C 29.105469 33.464844 29.382812 33.597656 29.664062 33.730469 C 30.226562 33.984375 30.785156 34.253906 31.3125 34.484375 C 31.839844 34.71875 32.328125 34.941406 32.757812 35.101562 C 32.972656 35.183594 33.160156 35.277344 33.34375 35.328125 C 33.523438 35.386719 33.679688 35.433594 33.808594 35.476562 C 34.066406 35.554688 34.214844 35.601562 34.214844 35.601562 L 34.199219 35.667969 " fill-opacity="1" fill-rule="nonzero"/><g clip-path="url(#c81de3f5d1)"><path fill="#ffffff" d="M 2.996094 53.140625 C 2.996094 53.140625 3.003906 53.097656 3.019531 53.023438 C 3.300781 51.59375 6.457031 37.808594 21.71875 45.742188 C 21.71875 45.742188 25.554688 47.097656 26.960938 46.914062 C 28.367188 46.730469 28.890625 44.054688 29.492188 42.542969 C 30.09375 41.03125 31.378906 40.746094 31.691406 40.980469 C 32.003906 41.210938 31.613281 42.351562 31.613281 42.351562 C 31.613281 42.351562 32.800781 39.347656 34.652344 39.871094 C 35.28125 40.050781 34.960938 41.1875 34.960938 41.1875 C 34.960938 41.1875 36.0625 38.519531 37.847656 39.023438 C 38.660156 39.253906 38.160156 41.046875 38.160156 41.046875 C 38.160156 41.046875 39.128906 40.550781 39.5625 41.328125 C 40.097656 42.289062 37.054688 48.191406 35.714844 50.21875 C 34.09375 52.671875 29.433594 56.335938 25.78125 56.320312 C 21.484375 56.300781 10.070312 48.503906 2.996094 53.140625 " fill-opacity="1" fill-rule="nonzero"/></g><path fill="#737373" d="M 27.199219 47.683594 C 27.199219 47.683594 26.367188 48.621094 26.878906 49.144531 C 27.691406 49.96875 29.828125 49.910156 29.828125 49.910156 C 29.828125 49.910156 31.003906 48.816406 30.054688 47.878906 C 29.554688 47.386719 27.199219 47.683594 27.199219 47.683594 " fill-opacity="1" fill-rule="nonzero"/><path fill="#737373" d="M 17.515625 50.355469 C 17.515625 50.355469 17.613281 50.324219 17.804688 50.28125 C 17.992188 50.230469 18.273438 50.171875 18.632812 50.117188 C 18.992188 50.058594 19.433594 50.011719 19.9375 49.972656 C 20.445312 49.957031 21.019531 49.914062 21.644531 49.964844 C 22.273438 49.972656 22.945312 50.070312 23.65625 50.160156 C 24.015625 50.191406 24.371094 50.296875 24.742188 50.371094 C 25.109375 50.453125 25.480469 50.535156 25.863281 50.621094 C 26.242188 50.722656 26.617188 50.789062 27 50.832031 C 27.382812 50.863281 27.777344 50.878906 28.164062 50.824219 C 28.929688 50.734375 29.703125 50.425781 30.195312 49.839844 C 30.441406 49.554688 30.625 49.210938 30.679688 48.847656 C 30.683594 48.765625 30.703125 48.648438 30.695312 48.59375 C 30.6875 48.550781 30.6875 48.480469 30.671875 48.453125 C 30.660156 48.425781 30.648438 48.394531 30.640625 48.367188 C 30.570312 48.230469 30.445312 48.109375 30.300781 48.003906 C 29.671875 47.617188 28.851562 47.5 28.105469 47.453125 C 27.914062 47.445312 27.726562 47.4375 27.539062 47.441406 C 27.332031 47.4375 27.160156 47.433594 26.964844 47.417969 C 26.570312 47.378906 26.207031 47.3125 25.855469 47.230469 C 25.148438 47.066406 24.503906 46.855469 23.917969 46.644531 C 22.738281 46.21875 21.800781 45.769531 21.144531 45.464844 C 20.488281 45.148438 20.117188 44.96875 20.117188 44.96875 C 20.117188 44.96875 20.503906 45.121094 21.175781 45.386719 C 21.851562 45.65625 22.820312 46.023438 23.996094 46.40625 C 24.585938 46.59375 25.230469 46.777344 25.921875 46.910156 C 26.265625 46.976562 26.625 47.027344 26.976562 47.054688 C 27.15625 47.058594 27.359375 47.058594 27.535156 47.0625 C 27.726562 47.054688 27.925781 47.058594 28.125 47.066406 C 28.914062 47.113281 29.75 47.195312 30.53125 47.660156 C 30.71875 47.789062 30.902344 47.949219 31.023438 48.183594 C 31.050781 48.25 31.074219 48.316406 31.09375 48.386719 C 31.113281 48.453125 31.109375 48.492188 31.121094 48.546875 C 31.136719 48.699219 31.109375 48.789062 31.105469 48.910156 C 31.042969 49.371094 30.828125 49.789062 30.535156 50.132812 C 29.9375 50.820312 29.050781 51.152344 28.210938 51.238281 C 27.789062 51.289062 27.367188 51.269531 26.957031 51.230469 C 26.542969 51.179688 26.140625 51.097656 25.769531 50.996094 C 25.394531 50.90625 25.023438 50.8125 24.660156 50.722656 C 24.300781 50.640625 23.953125 50.523438 23.601562 50.480469 C 22.90625 50.363281 22.246094 50.246094 21.628906 50.214844 C 21.015625 50.148438 20.449219 50.152344 19.945312 50.140625 C 19.441406 50.148438 19.003906 50.164062 18.644531 50.203125 C 18.285156 50.238281 18 50.269531 17.808594 50.304688 C 17.617188 50.332031 17.515625 50.355469 17.515625 50.355469 " fill-opacity="1" fill-rule="nonzero"/><path fill="#737373" d="M 31.660156 42.207031 C 31.660156 42.207031 31.246094 43.574219 30.785156 44.925781 C 30.554688 45.601562 30.316406 46.277344 30.101562 46.78125 C 30.046875 46.90625 29.996094 47.023438 29.953125 47.125 C 29.910156 47.230469 29.84375 47.328125 29.800781 47.40625 C 29.707031 47.5625 29.652344 47.652344 29.652344 47.652344 L 29.160156 47.199219 C 29.160156 47.199219 29.203125 47.140625 29.277344 47.035156 C 29.316406 46.980469 29.367188 46.929688 29.417969 46.839844 C 29.46875 46.746094 29.527344 46.644531 29.59375 46.53125 C 29.855469 46.078125 30.167969 45.4375 30.476562 44.796875 C 31.089844 43.515625 31.660156 42.207031 31.660156 42.207031 " fill-opacity="1" fill-rule="nonzero"/><path fill="#737373" d="M 34.960938 41.1875 C 34.960938 41.1875 34.257812 43.089844 33.289062 44.882812 C 33.046875 45.335938 32.789062 45.773438 32.53125 46.183594 C 32.273438 46.585938 32.011719 46.957031 31.769531 47.261719 C 31.652344 47.417969 31.527344 47.550781 31.425781 47.671875 C 31.324219 47.796875 31.222656 47.894531 31.140625 47.976562 C 30.972656 48.140625 30.875 48.234375 30.875 48.234375 L 30.449219 47.714844 C 30.449219 47.714844 30.542969 47.636719 30.703125 47.503906 C 30.785156 47.4375 30.882812 47.359375 30.988281 47.25 C 31.09375 47.144531 31.214844 47.03125 31.339844 46.894531 C 31.589844 46.625 31.871094 46.292969 32.15625 45.921875 C 32.4375 45.546875 32.726562 45.136719 33 44.714844 C 34.101562 43.027344 34.960938 41.1875 34.960938 41.1875 " fill-opacity="1" fill-rule="nonzero"/><path fill="#737373" d="M 38.160156 41.046875 C 38.160156 41.046875 37.960938 41.074219 37.683594 41.273438 C 37.40625 41.472656 37.058594 41.816406 36.714844 42.289062 C 36.375 42.761719 36.027344 43.347656 35.699219 44 C 35.386719 44.652344 35.054688 45.371094 34.683594 46.0625 C 33.945312 47.449219 33.074219 48.792969 32.140625 49.617188 C 31.683594 50.027344 31.199219 50.292969 30.820312 50.402344 C 30.628906 50.457031 30.472656 50.476562 30.363281 50.488281 C 30.253906 50.492188 30.195312 50.496094 30.195312 50.496094 L 30.207031 49.824219 C 30.207031 49.824219 30.25 49.824219 30.324219 49.824219 C 30.398438 49.824219 30.507812 49.8125 30.648438 49.78125 C 30.933594 49.714844 31.339844 49.527344 31.769531 49.175781 C 32.648438 48.484375 33.574219 47.214844 34.367188 45.882812 C 34.769531 45.21875 35.117188 44.527344 35.484375 43.882812 C 35.855469 43.242188 36.242188 42.671875 36.621094 42.214844 C 36.996094 41.757812 37.371094 41.429688 37.664062 41.246094 C 37.957031 41.0625 38.160156 41.046875 38.160156 41.046875 " fill-opacity="1" fill-rule="nonzero"/><path fill="#737373" d="M 27.199219 47.683594 C 27.199219 47.683594 27.957031 48.375 26.878906 49.144531 C 26.878906 49.144531 26.367188 48.527344 27.199219 47.683594 " fill-opacity="1" fill-rule="nonzero"/><g clip-path="url(#5f15bae995)"><path fill="#ffbd59" d="M 25.367188 38.992188 C 24.050781 38.992188 22.980469 40.058594 22.980469 41.375 C 22.980469 42.6875 24.050781 43.753906 25.367188 43.753906 C 26.632812 43.753906 27.664062 42.757812 27.734375 41.507812 C 27.742188 41.464844 27.746094 33.3125 27.746094 33.3125 C 27.746094 33.097656 27.648438 32.898438 27.476562 32.773438 C 27.308594 32.652344 27.085938 32.617188 26.886719 32.679688 L 20.179688 34.761719 C 19.902344 34.851562 19.714844 35.105469 19.714844 35.398438 L 19.714844 41.855469 C 19.390625 41.695312 19.039062 41.597656 18.65625 41.597656 C 17.34375 41.597656 16.277344 42.667969 16.277344 43.984375 C 16.277344 45.292969 17.34375 46.363281 18.65625 46.363281 C 19.929688 46.363281 20.953125 45.363281 21.023438 44.117188 C 21.035156 44.074219 21.042969 38.484375 21.042969 38.484375 L 26.417969 36.8125 L 26.417969 39.25 C 26.101562 39.089844 25.746094 38.992188 25.367188 38.992188 Z M 25.367188 38.992188 " fill-opacity="1" fill-rule="nonzero"/></g><g fill="#ffffff" fill-opacity="1"><g transform="translate(127.978166, 50.950022)"><g><path d="M 30.109375 -30.828125 C 30.441406 -30.890625 30.804688 -30.921875 31.203125 -30.921875 C 31.609375 -30.921875 32.0625 -30.890625 32.5625 -30.828125 C 33.21875 -30.765625 33.773438 -30.660156 34.234375 -30.515625 C 34.691406 -30.367188 35.066406 -30.207031 35.359375 -30.03125 C 35.628906 -29.875 35.867188 -29.785156 36.078125 -29.765625 C 36.460938 -29.671875 36.757812 -29.296875 36.96875 -28.640625 C 37.144531 -28.203125 37.234375 -23.265625 37.234375 -13.828125 C 37.234375 -9.972656 37.1875 -6.710938 37.09375 -4.046875 C 37.007812 -1.316406 36.832031 0.503906 36.5625 1.421875 C 36.269531 2.429688 35.957031 2.9375 35.625 2.9375 C 35.507812 2.9375 35.410156 2.992188 35.328125 3.109375 C 35.265625 3.234375 34.3125 3.296875 32.46875 3.296875 C 31.519531 3.296875 30.789062 3.28125 30.28125 3.25 C 29.78125 3.21875 29.488281 3.1875 29.40625 3.15625 C 29.195312 3.09375 28.972656 2.945312 28.734375 2.71875 C 28.617188 2.59375 28.535156 2.484375 28.484375 2.390625 C 28.441406 2.304688 28.40625 2.210938 28.375 2.109375 C 28.351562 2.003906 28.316406 1.882812 28.265625 1.75 C 28.222656 1.625 28.144531 1.441406 28.03125 1.203125 C 27.875 0.898438 27.722656 0.597656 27.578125 0.296875 C 27.429688 0.00390625 27.285156 -0.316406 27.140625 -0.671875 C 26.984375 -1.054688 26.832031 -1.378906 26.6875 -1.640625 C 26.539062 -1.910156 26.410156 -2.132812 26.296875 -2.3125 C 26.085938 -2.664062 25.984375 -2.84375 25.984375 -2.84375 C 26.035156 -2.84375 26.09375 -2.828125 26.15625 -2.796875 C 26.25 -2.773438 26.296875 -2.773438 26.296875 -2.796875 C 26.296875 -2.921875 26.253906 -3.09375 26.171875 -3.3125 C 26.097656 -3.53125 26.046875 -3.65625 26.015625 -3.6875 L 26.734375 -3.609375 L 26.78125 -3.609375 C 26.84375 -3.578125 26.9375 -3.550781 27.0625 -3.53125 C 27.195312 -3.519531 27.367188 -3.484375 27.578125 -3.421875 C 27.722656 -3.390625 27.863281 -3.359375 28 -3.328125 C 28.132812 -3.304688 28.234375 -3.28125 28.296875 -3.25 C 28.503906 -3.15625 28.617188 -3.273438 28.640625 -3.609375 C 28.671875 -3.753906 28.691406 -4.007812 28.703125 -4.375 C 28.722656 -4.75 28.75 -5.273438 28.78125 -5.953125 C 28.78125 -6.347656 28.785156 -6.832031 28.796875 -7.40625 C 28.816406 -7.988281 28.832031 -8.582031 28.84375 -9.1875 C 28.863281 -9.789062 28.878906 -10.378906 28.890625 -10.953125 C 28.910156 -11.535156 28.921875 -12.019531 28.921875 -12.40625 C 28.941406 -16.238281 28.941406 -18.421875 28.921875 -18.953125 C 28.890625 -19.578125 28.84375 -19.890625 28.78125 -19.890625 C 28.71875 -19.890625 28.6875 -19.84375 28.6875 -19.75 C 28.6875 -19.71875 28.648438 -19.601562 28.578125 -19.40625 C 28.503906 -19.21875 28.363281 -18.914062 28.15625 -18.5 C 27.769531 -17.757812 27.398438 -17.054688 27.046875 -16.390625 C 26.691406 -15.722656 26.363281 -15.050781 26.0625 -14.375 C 25.945312 -14.132812 25.820312 -13.875 25.6875 -13.59375 C 25.550781 -13.3125 25.367188 -12.960938 25.140625 -12.546875 C 25.109375 -12.453125 25.03125 -12.304688 24.90625 -12.109375 C 24.789062 -11.921875 24.679688 -11.71875 24.578125 -11.5 C 24.472656 -11.28125 24.367188 -11.066406 24.265625 -10.859375 C 24.160156 -10.648438 24.078125 -10.5 24.015625 -10.40625 C 23.578125 -9.457031 23.097656 -8.773438 22.578125 -8.359375 C 22.054688 -7.941406 21.394531 -7.644531 20.59375 -7.46875 C 19.757812 -7.289062 19.210938 -7.234375 18.953125 -7.296875 C 18.566406 -7.378906 18.113281 -7.660156 17.59375 -8.140625 C 17.070312 -8.617188 16.554688 -9.160156 16.046875 -9.765625 C 15.546875 -10.367188 15.109375 -10.988281 14.734375 -11.625 C 14.367188 -12.269531 14.144531 -12.8125 14.0625 -13.25 C 14.03125 -13.457031 13.894531 -13.894531 13.65625 -14.5625 C 13.414062 -15.226562 13.15625 -15.929688 12.875 -16.671875 C 12.59375 -17.421875 12.328125 -18.082031 12.078125 -18.65625 C 11.828125 -19.238281 11.640625 -19.546875 11.515625 -19.578125 C 11.398438 -19.578125 11.296875 -19.53125 11.203125 -19.4375 C 11.085938 -19.320312 11 -18.863281 10.9375 -18.0625 C 10.914062 -17.40625 10.875 -16.929688 10.8125 -16.640625 C 10.78125 -16.515625 10.753906 -16.394531 10.734375 -16.28125 C 10.722656 -16.164062 10.71875 -16.019531 10.71875 -15.84375 C 10.71875 -15.65625 10.707031 -15.472656 10.6875 -15.296875 C 10.675781 -15.117188 10.65625 -14.914062 10.625 -14.6875 C 10.601562 -14.320312 10.5625 -13.921875 10.5 -13.484375 C 10.5 -13.359375 10.484375 -13.039062 10.453125 -12.53125 C 10.421875 -12.03125 10.390625 -11.632812 10.359375 -11.34375 C 10.335938 -11.070312 10.316406 -10.722656 10.296875 -10.296875 C 10.285156 -9.867188 10.28125 -9.410156 10.28125 -8.921875 C 10.28125 -8.429688 10.285156 -7.957031 10.296875 -7.5 C 10.316406 -7.039062 10.328125 -6.660156 10.328125 -6.359375 C 10.347656 -5.679688 10.363281 -5.117188 10.375 -4.671875 C 10.394531 -4.222656 10.390625 -3.878906 10.359375 -3.640625 C 10.304688 -2.609375 10.351562 -1.203125 10.5 0.578125 C 10.5625 1.285156 10.296875 1.953125 9.703125 2.578125 C 9.078125 3.234375 8.203125 3.632812 7.078125 3.78125 C 6.835938 3.8125 6.664062 3.84375 6.5625 3.875 C 6.457031 3.90625 6.375 3.929688 6.3125 3.953125 C 6.257812 3.953125 6.046875 3.867188 5.671875 3.703125 C 5.296875 3.546875 4.90625 3.234375 4.5 2.765625 C 4.289062 2.523438 4.101562 2.320312 3.9375 2.15625 C 3.769531 1.988281 3.613281 1.832031 3.46875 1.6875 C 3.257812 1.507812 3.082031 1.257812 2.9375 0.9375 C 2.820312 0.664062 2.71875 0.347656 2.625 -0.015625 C 2.53125 -0.390625 2.5 -0.59375 2.53125 -0.625 C 2.5625 -0.65625 2.609375 -2.421875 2.671875 -5.921875 C 2.703125 -9.421875 2.742188 -11.835938 2.796875 -13.171875 C 2.972656 -16.578125 3.082031 -19.347656 3.125 -21.484375 C 3.175781 -23.617188 3.171875 -25.117188 3.109375 -25.984375 C 2.960938 -27.703125 2.753906 -28.769531 2.484375 -29.1875 C 2.398438 -29.394531 2.375 -29.507812 2.40625 -29.53125 C 2.4375 -29.5625 2.804688 -29.640625 3.515625 -29.765625 C 4.347656 -29.910156 4.941406 -30 5.296875 -30.03125 C 5.828125 -30.082031 6.109375 -30.097656 6.140625 -30.078125 C 6.203125 -30.015625 6.46875 -29.984375 6.9375 -29.984375 C 8.269531 -29.953125 9.21875 -29.710938 9.78125 -29.265625 C 10.082031 -29.054688 10.425781 -28.910156 10.8125 -28.828125 C 11.695312 -28.617188 12.4375 -28.414062 13.03125 -28.21875 C 13.625 -28.03125 14.132812 -27.769531 14.5625 -27.4375 C 15 -27.113281 15.378906 -26.6875 15.703125 -26.15625 C 16.023438 -25.625 16.378906 -24.910156 16.765625 -24.015625 C 16.921875 -23.628906 17.046875 -23.300781 17.140625 -23.03125 C 17.242188 -22.769531 17.34375 -22.550781 17.4375 -22.375 C 18.269531 -20.5625 18.96875 -18.796875 19.53125 -17.078125 L 19.703125 -16.6875 L 19.84375 -16.90625 C 20.019531 -17.164062 20.253906 -17.597656 20.546875 -18.203125 C 20.847656 -18.816406 21.175781 -19.507812 21.53125 -20.28125 C 21.882812 -21.050781 22.253906 -21.859375 22.640625 -22.703125 C 23.023438 -23.554688 23.375 -24.359375 23.6875 -25.109375 C 24 -25.867188 24.257812 -26.535156 24.46875 -27.109375 C 24.675781 -27.691406 24.78125 -28.101562 24.78125 -28.34375 C 24.8125 -28.519531 24.867188 -28.644531 24.953125 -28.71875 C 25.046875 -28.789062 25.207031 -28.914062 25.4375 -29.09375 C 25.625 -29.207031 25.894531 -29.351562 26.25 -29.53125 C 26.601562 -29.707031 26.960938 -29.878906 27.328125 -30.046875 C 27.703125 -30.210938 28.066406 -30.351562 28.421875 -30.46875 C 28.773438 -30.59375 29.054688 -30.65625 29.265625 -30.65625 C 29.328125 -30.65625 29.429688 -30.664062 29.578125 -30.6875 C 29.722656 -30.71875 29.898438 -30.765625 30.109375 -30.828125 Z M 30.109375 -30.828125 "/></g></g></g><g fill="#ffffff" fill-opacity="1"><g transform="translate(168.270089, 50.950022)"><g><path d="M 14.8125 -23.9375 C 14.664062 -23.96875 14.554688 -23.988281 14.484375 -24 C 14.410156 -24.007812 14.34375 -24.015625 14.28125 -24.015625 C 13.894531 -24.015625 13.429688 -23.976562 12.890625 -23.90625 C 12.359375 -23.832031 11.929688 -23.722656 11.609375 -23.578125 C 11.523438 -23.546875 11.484375 -23.113281 11.484375 -22.28125 C 11.503906 -21.863281 11.5 -21.554688 11.46875 -21.359375 C 11.445312 -21.171875 11.421875 -21.066406 11.390625 -21.046875 C 11.328125 -20.984375 11.296875 -20.644531 11.296875 -20.03125 C 11.296875 -19.425781 11.28125 -18.546875 11.25 -17.390625 C 11.25 -16.410156 11.25 -15.613281 11.25 -15 C 11.25 -14.394531 11.234375 -14.019531 11.203125 -13.875 C 11.179688 -13.695312 11.171875 -13.5625 11.171875 -13.46875 C 11.171875 -13.382812 11.242188 -13.34375 11.390625 -13.34375 C 11.472656 -13.34375 11.585938 -13.359375 11.734375 -13.390625 C 11.890625 -13.421875 12.085938 -13.460938 12.328125 -13.515625 C 14.335938 -13.929688 15.820312 -14.507812 16.78125 -15.25 C 17.75 -16 18.351562 -16.992188 18.59375 -18.234375 C 18.65625 -18.566406 18.722656 -18.960938 18.796875 -19.421875 C 18.867188 -19.878906 18.875 -20.359375 18.8125 -20.859375 C 18.78125 -21.367188 18.710938 -21.765625 18.609375 -22.046875 C 18.515625 -22.328125 18.421875 -22.539062 18.328125 -22.6875 C 18.210938 -22.863281 17.867188 -23.039062 17.296875 -23.21875 C 17.035156 -23.3125 16.832031 -23.429688 16.6875 -23.578125 C 16.59375 -23.640625 16.472656 -23.679688 16.328125 -23.703125 C 16.179688 -23.734375 16.019531 -23.765625 15.84375 -23.796875 C 15.632812 -23.828125 15.445312 -23.847656 15.28125 -23.859375 C 15.113281 -23.878906 14.957031 -23.90625 14.8125 -23.9375 Z M 11.25 -30.734375 C 11.582031 -30.765625 11.992188 -30.785156 12.484375 -30.796875 C 12.972656 -30.816406 13.570312 -30.8125 14.28125 -30.78125 C 15.675781 -30.75 16.960938 -30.632812 18.140625 -30.4375 C 19.328125 -30.25 20.425781 -29.929688 21.4375 -29.484375 C 22.445312 -29.046875 23.390625 -28.445312 24.265625 -27.6875 C 25.140625 -26.9375 25.945312 -25.953125 26.6875 -24.734375 C 26.925781 -24.316406 27.125 -23.867188 27.28125 -23.390625 C 27.445312 -22.921875 27.609375 -22.4375 27.765625 -21.9375 C 27.816406 -21.726562 27.847656 -21.4375 27.859375 -21.0625 C 27.878906 -20.6875 27.890625 -20.304688 27.890625 -19.921875 C 27.890625 -19.535156 27.875 -19.15625 27.84375 -18.78125 C 27.8125 -18.414062 27.785156 -18.128906 27.765625 -17.921875 C 27.316406 -15.460938 26.25 -13.34375 24.5625 -11.5625 C 23.84375 -10.789062 23.378906 -10.40625 23.171875 -10.40625 C 23.085938 -10.40625 23.015625 -10.363281 22.953125 -10.28125 C 22.867188 -10.039062 22.601562 -9.78125 22.15625 -9.5 C 21.707031 -9.21875 21.203125 -8.957031 20.640625 -8.71875 C 20.078125 -8.476562 19.523438 -8.269531 18.984375 -8.09375 C 18.453125 -7.914062 18.054688 -7.796875 17.796875 -7.734375 C 17.285156 -7.617188 16.769531 -7.523438 16.25 -7.453125 C 15.738281 -7.378906 15.226562 -7.34375 14.71875 -7.34375 C 14.300781 -7.34375 13.722656 -7.414062 12.984375 -7.5625 C 12.367188 -7.707031 11.941406 -7.796875 11.703125 -7.828125 L 11.296875 -7.875 L 11.203125 -7.203125 C 11.179688 -6.960938 11.144531 -6.523438 11.09375 -5.890625 C 11.050781 -5.253906 11.015625 -4.164062 10.984375 -2.625 C 10.929688 -1.707031 10.863281 -0.898438 10.78125 -0.203125 C 10.707031 0.492188 10.597656 1.09375 10.453125 1.59375 C 10.304688 2.101562 10.128906 2.492188 9.921875 2.765625 C 9.828125 2.816406 9.691406 2.878906 9.515625 2.953125 C 9.335938 3.023438 9.148438 3.097656 8.953125 3.171875 C 8.765625 3.253906 8.582031 3.320312 8.40625 3.375 C 8.226562 3.4375 8.09375 3.46875 8 3.46875 C 7.820312 3.46875 7.628906 3.523438 7.421875 3.640625 C 7.273438 3.703125 7.101562 3.75 6.90625 3.78125 C 6.71875 3.8125 6.503906 3.828125 6.265625 3.828125 C 6.035156 3.828125 5.816406 3.8125 5.609375 3.78125 C 5.398438 3.75 5.222656 3.691406 5.078125 3.609375 C 4.773438 3.398438 4.328125 3.039062 3.734375 2.53125 C 3.203125 2.09375 2.867188 1.753906 2.734375 1.515625 C 2.597656 1.273438 2.488281 0.914062 2.40625 0.4375 C 2.375 0.144531 2.445312 -0.191406 2.625 -0.578125 C 2.71875 -0.722656 2.773438 -0.851562 2.796875 -0.96875 C 2.828125 -1.09375 2.859375 -1.210938 2.890625 -1.328125 C 2.921875 -1.453125 2.9375 -1.671875 2.9375 -1.984375 C 2.9375 -2.296875 2.953125 -2.71875 2.984375 -3.25 C 3.160156 -8.113281 3.273438 -11.988281 3.328125 -14.875 C 3.390625 -17.769531 3.394531 -19.707031 3.34375 -20.6875 C 3.28125 -21.332031 3.25 -21.722656 3.25 -21.859375 C 3.25 -21.992188 3.1875 -22.109375 3.0625 -22.203125 C 2.175781 -22.847656 1.585938 -23.515625 1.296875 -24.203125 C 0.878906 -25.003906 0.726562 -25.953125 0.84375 -27.046875 C 0.875 -27.429688 0.894531 -27.710938 0.90625 -27.890625 C 0.925781 -28.066406 0.9375 -28.171875 0.9375 -28.203125 C 0.90625 -28.347656 1.082031 -28.503906 1.46875 -28.671875 C 1.851562 -28.835938 2.625 -29.066406 3.78125 -29.359375 C 5.03125 -29.679688 6.273438 -29.96875 7.515625 -30.21875 C 8.765625 -30.476562 10.007812 -30.648438 11.25 -30.734375 Z M 11.25 -30.734375 "/></g></g></g><g fill="#ffffff" fill-opacity="1"><g transform="translate(197.310521, 50.950022)"><g><path d="M 14.234375 -30.46875 C 15.148438 -30.46875 16.078125 -30.351562 17.015625 -30.125 C 17.953125 -29.90625 18.84375 -29.582031 19.6875 -29.15625 C 20.53125 -28.726562 21.300781 -28.195312 22 -27.5625 C 22.695312 -26.925781 23.253906 -26.175781 23.671875 -25.3125 C 24.140625 -24.300781 24.375 -23.367188 24.375 -22.515625 C 24.4375 -21.296875 24.070312 -20.078125 23.28125 -18.859375 C 22.5 -17.640625 21.351562 -16.632812 19.84375 -15.84375 C 19.101562 -15.457031 18.703125 -15.1875 18.640625 -15.03125 C 18.640625 -15 18.757812 -14.910156 19 -14.765625 C 19.320312 -14.617188 19.679688 -14.425781 20.078125 -14.1875 C 20.484375 -13.945312 20.9375 -13.625 21.4375 -13.21875 C 22.769531 -12.144531 23.734375 -10.941406 24.328125 -9.609375 C 24.921875 -8.273438 25.097656 -6.941406 24.859375 -5.609375 C 24.628906 -4.273438 24.128906 -2.988281 23.359375 -1.75 C 22.585938 -0.519531 21.648438 0.492188 20.546875 1.296875 C 19.953125 1.734375 19.273438 2.109375 18.515625 2.421875 C 17.765625 2.734375 16.988281 2.992188 16.1875 3.203125 C 15.382812 3.410156 14.578125 3.566406 13.765625 3.671875 C 12.953125 3.773438 12.191406 3.828125 11.484375 3.828125 C 10.890625 3.828125 10.144531 3.757812 9.25 3.625 C 8.363281 3.488281 7.484375 3.285156 6.609375 3.015625 C 5.734375 2.753906 4.929688 2.40625 4.203125 1.96875 C 3.472656 1.539062 2.945312 1.019531 2.625 0.40625 C 2.332031 -0.1875 2.285156 -0.8125 2.484375 -1.46875 C 2.578125 -1.707031 2.59375 -1.988281 2.53125 -2.3125 C 2.5 -2.457031 2.484375 -2.675781 2.484375 -2.96875 C 2.484375 -3.269531 2.484375 -3.628906 2.484375 -4.046875 C 2.460938 -4.460938 2.453125 -4.828125 2.453125 -5.140625 C 2.453125 -5.453125 2.4375 -5.679688 2.40625 -5.828125 L 2.3125 -6.265625 L 2.984375 -5.5625 C 3.867188 -4.613281 4.859375 -3.921875 5.953125 -3.484375 C 7.054688 -3.054688 8.257812 -2.84375 9.5625 -2.84375 C 10.363281 -2.84375 11.117188 -2.925781 11.828125 -3.09375 C 12.546875 -3.257812 13.203125 -3.472656 13.796875 -3.734375 C 14.617188 -4.117188 15.238281 -4.664062 15.65625 -5.375 C 16.070312 -6.09375 16.25 -6.851562 16.1875 -7.65625 C 16.15625 -8.507812 15.8125 -9.113281 15.15625 -9.46875 C 14.507812 -9.832031 13.800781 -10.023438 13.03125 -10.046875 C 12.707031 -10.046875 12.320312 -10.015625 11.875 -9.953125 C 11.425781 -9.898438 10.910156 -9.816406 10.328125 -9.703125 C 9.734375 -9.578125 9.242188 -9.492188 8.859375 -9.453125 C 8.472656 -9.410156 8.144531 -9.390625 7.875 -9.390625 C 6.78125 -9.390625 6.039062 -9.90625 5.65625 -10.9375 C 5.46875 -11.59375 5.4375 -12.144531 5.5625 -12.59375 C 5.59375 -12.769531 5.59375 -12.875 5.5625 -12.90625 C 5.46875 -12.925781 5.457031 -13.128906 5.53125 -13.515625 C 5.613281 -13.898438 5.753906 -14.257812 5.953125 -14.59375 C 6.078125 -14.800781 6.140625 -14.960938 6.140625 -15.078125 C 6.140625 -15.171875 6.265625 -15.328125 6.515625 -15.546875 C 6.765625 -15.765625 7.007812 -15.9375 7.25 -16.0625 C 7.601562 -16.207031 7.957031 -16.347656 8.3125 -16.484375 C 8.675781 -16.617188 9.035156 -16.710938 9.390625 -16.765625 C 9.828125 -16.890625 10.203125 -17.003906 10.515625 -17.109375 C 10.828125 -17.210938 11.109375 -17.335938 11.359375 -17.484375 C 11.617188 -17.628906 11.875 -17.796875 12.125 -17.984375 C 12.375 -18.179688 12.660156 -18.429688 12.984375 -18.734375 C 13.816406 -19.378906 14.410156 -19.96875 14.765625 -20.5 C 15.117188 -21.039062 15.328125 -21.648438 15.390625 -22.328125 C 15.421875 -22.679688 15.40625 -22.890625 15.34375 -22.953125 C 15.289062 -23.015625 15.023438 -23.070312 14.546875 -23.125 C 13.804688 -23.21875 12.351562 -22.878906 10.1875 -22.109375 C 9.144531 -21.722656 8.28125 -21.441406 7.59375 -21.265625 C 6.914062 -21.085938 6.414062 -20.984375 6.09375 -20.953125 C 5.5 -20.890625 5.066406 -20.90625 4.796875 -21 C 4.023438 -21.175781 3.476562 -21.53125 3.15625 -22.0625 C 2.976562 -22.363281 2.789062 -22.640625 2.59375 -22.890625 C 2.40625 -23.140625 2.28125 -23.367188 2.21875 -23.578125 C 2.164062 -23.722656 2.113281 -23.914062 2.0625 -24.15625 C 2.019531 -24.394531 1.96875 -24.691406 1.90625 -25.046875 C 1.851562 -25.398438 1.8125 -25.722656 1.78125 -26.015625 C 1.75 -26.316406 1.734375 -26.585938 1.734375 -26.828125 C 1.703125 -27.359375 1.757812 -27.800781 1.90625 -28.15625 C 2.5 -29.3125 2.875 -29.890625 3.03125 -29.890625 C 3.082031 -29.890625 3.195312 -29.679688 3.375 -29.265625 L 3.6875 -28.609375 L 4.21875 -28.609375 C 4.550781 -28.609375 4.984375 -28.664062 5.515625 -28.78125 C 6.046875 -28.894531 6.695312 -29.070312 7.46875 -29.3125 C 8.570312 -29.664062 9.691406 -29.945312 10.828125 -30.15625 C 11.972656 -30.363281 13.109375 -30.46875 14.234375 -30.46875 Z M 14.234375 -30.46875 "/></g></g></g></svg>